<svg width="231" height="62" viewBox="0 0 231 62" fill="none" xmlns="http://www.w3.org/2000/svg">
<path d="M168.693 45.3078H163.671V16.6781H176.247C179.138 16.6781 181.412 17.5365 183.072 19.2535C184.76 20.9704 185.605 23.1022 185.605 25.649C185.605 28.1671 184.76 30.299 183.072 32.0445C181.412 33.7615 179.138 34.6199 176.247 34.6199H168.693V45.3078ZM175.561 30.1988C176.991 30.1988 178.165 29.7839 179.08 28.9541C179.996 28.1242 180.454 27.0225 180.454 25.649C180.454 24.2755 179.996 23.1738 179.08 22.3439C178.165 21.5141 176.991 21.0991 175.561 21.0991H168.693V30.1988H175.561Z" fill="#6638DD"/>
<path d="M205.987 45.3078H201.48V43.0758C199.878 44.9071 197.646 45.8228 194.784 45.8228C192.896 45.8228 191.222 45.2219 189.762 44.0201C188.303 42.7896 187.573 41.1013 187.573 38.9551C187.573 36.7518 188.289 35.0778 189.719 33.9331C191.179 32.7885 192.867 32.2162 194.784 32.2162C197.732 32.2162 199.964 33.1033 201.48 34.8775V31.787C201.48 30.5851 201.037 29.6408 200.15 28.9541C199.263 28.2673 198.089 27.9239 196.63 27.9239C194.312 27.9239 192.266 28.7967 190.492 30.5422L188.646 27.4088C190.993 25.1768 193.897 24.0608 197.36 24.0608C199.907 24.0608 201.981 24.6618 203.584 25.8636C205.186 27.0655 205.987 28.9684 205.987 31.5724V45.3078ZM196.544 42.7324C198.805 42.7324 200.45 42.017 201.48 40.5862V37.4528C200.45 36.0221 198.805 35.3067 196.544 35.3067C195.257 35.3067 194.198 35.6501 193.368 36.3368C192.538 37.0236 192.123 37.925 192.123 39.041C192.123 40.157 192.538 41.0584 193.368 41.7451C194.198 42.4033 195.257 42.7324 196.544 42.7324Z" fill="#6638DD"/>
<path d="M210.929 53.4202L211.616 49.3855C212.131 49.6144 212.703 49.7288 213.333 49.7288C214.792 49.7288 215.78 49.1279 216.295 47.9261L217.325 45.5653L208.826 24.5759H213.633L219.686 40.1141L225.738 24.5759H230.588L220.587 49.0421C219.356 52.1039 216.981 53.6635 213.462 53.7207C212.517 53.7207 211.673 53.6205 210.929 53.4202Z" fill="#6638DD"/>
<path d="M67.2685 37.6039C65.4816 37.6039 64.0709 36.9769 63.0364 35.723C62.0019 34.4377 61.4847 32.8546 61.4847 30.9737C61.4847 29.1241 62.0019 27.5723 63.0364 26.3184C64.0709 25.0331 65.4816 24.3905 67.2685 24.3905C69.0553 24.3905 70.466 25.0331 71.5005 26.3184C72.5664 27.5723 73.0993 29.1241 73.0993 30.9737C73.0993 32.8546 72.5664 34.4377 71.5005 35.723C70.466 36.9769 69.0553 37.6039 67.2685 37.6039Z" fill="#6638DD"/>
<path d="M121.501 37.6039C119.714 37.6039 118.303 36.9769 117.269 35.723C116.234 34.4377 115.717 32.8546 115.717 30.9737C115.717 29.1241 116.234 27.5723 117.269 26.3184C118.303 25.0331 119.714 24.3905 121.501 24.3905C123.288 24.3905 124.698 25.0331 125.733 26.3184C126.799 27.5723 127.332 29.1241 127.332 30.9737C127.332 32.8546 126.799 34.4377 125.733 35.723C124.698 36.9769 123.288 37.6039 121.501 37.6039Z" fill="#6638DD"/>
<path fill-rule="evenodd" clip-rule="evenodd" d="M14.3077 0C6.40577 0 0 6.40577 0 14.3077V47.6923C0 55.5942 6.40579 62 14.3077 62H135.923C143.825 62 150.231 55.5942 150.231 47.6923V14.3077C150.231 6.40577 143.825 0 135.923 0H14.3077ZM44.8592 42.3532H50.8781V25.9422C50.8781 23.6538 50.2981 21.9453 49.1382 20.8167C47.9783 19.6568 46.3325 19.0769 44.2008 19.0769C42.5707 19.0769 41.0346 19.4844 39.5926 20.2995C38.1819 21.1145 37.1161 22.0863 36.395 23.2149C35.4859 20.4562 33.3856 19.0769 30.094 19.0769C28.5266 19.0769 27.0375 19.4687 25.6268 20.2524C24.2161 21.0048 23.2287 21.7885 22.6644 22.6036V19.6412H16.6925V42.3532H22.6644V27.0708C23.166 26.3497 23.84 25.7228 24.6864 25.1898C25.5328 24.6569 26.4262 24.3905 27.3667 24.3905C29.6238 24.3905 30.7523 25.5974 30.7523 28.0112V42.3532H36.7712V27.0237C37.2728 26.3341 37.9311 25.7228 38.7462 25.1898C39.5926 24.6569 40.5017 24.3905 41.4735 24.3905C43.7306 24.3905 44.8592 25.5974 44.8592 28.0112V42.3532ZM67.2685 42.9174C70.9049 42.9174 73.8203 41.7732 76.0147 39.4848C78.2091 37.165 79.3063 34.3279 79.3063 30.9737C79.3063 27.6194 78.2091 24.798 76.0147 22.5095C73.8203 20.2211 70.9049 19.0769 67.2685 19.0769C63.632 19.0769 60.7166 20.2211 58.5222 22.5095C56.3592 24.798 55.2776 27.6194 55.2776 30.9737C55.2776 34.3279 56.3592 37.165 58.5222 39.4848C60.7166 41.7732 63.632 42.9174 67.2685 42.9174ZM105.038 42.3532H99.0662V28.6225C99.0662 25.8011 97.6712 24.3905 94.8811 24.3905C92.7181 24.3905 90.9939 25.2839 89.7086 27.0708V42.3532H83.7367V19.6412H89.7086V22.6036C91.6836 20.2524 94.3325 19.0769 97.6555 19.0769C100.101 19.0769 101.935 19.7195 103.157 21.0048C104.411 22.2901 105.038 24.0613 105.038 26.3184V42.3532ZM121.501 42.9174C125.137 42.9174 128.053 41.7732 130.247 39.4848C132.441 37.165 133.539 34.3279 133.539 30.9737C133.539 27.6194 132.441 24.798 130.247 22.5095C128.053 20.2211 125.137 19.0769 121.501 19.0769C117.864 19.0769 114.949 20.2211 112.755 22.5095C110.592 24.798 109.51 27.6194 109.51 30.9737C109.51 34.3279 110.592 37.165 112.755 39.4848C114.949 41.7732 117.864 42.9174 121.501 42.9174Z" fill="#6638DD"/>
</svg>
